<svg xmlns="http://www.w3.org/2000/svg" viewBox="0 0 450 96" role="img" aria-labelledby="title desc">
  <title id="title">BirdHackBot.</title>
  <desc id="desc">BirdHackBot wordmark with a geometric raven and red period</desc>
  <path fill="#242424" d="M10 78c8-18 15-34 29-47C49 22 60 15 71 16c8 1 14 5 18 11l-12 2c8 3 13 8 17 15l-18 2c-4 0-9 3-14 8-9 9-15 20-20 30l-9-9-17 10 7-13-13 6Z"/>
  <path fill="#f6f2e9" d="M16 72c11-15 23-24 36-28 10-3 17-2 24 1-13 2-23 8-31 16L31 77l-7-3Z"/>
  <path fill="#f6f2e9" d="M27 79c8-4 16-10 23-18-5 9-10 16-17 21l-10 6 4-9Z"/>
  <path fill="#f6f2e9" d="M70 31 91 36l-13 5-11-3 3-7Z"/>
  <path fill="#e5484d" d="M68 22c5 0 9 2 11 5-2 4-5 6-9 6-3-3-4-7-2-11Z"/>
  <circle cx="72" cy="27" r="2" fill="#171717"/>
  <text x="118" y="63" fill="#f3f1ea" font-family="Inter,Segoe UI,Arial,sans-serif" font-size="39" font-weight="700" letter-spacing="-1.7" textLength="246" lengthAdjust="spacingAndGlyphs">BirdHackBot</text>
  <text x="373" y="63" fill="#e5484d" font-family="Inter,Segoe UI,Arial,sans-serif" font-size="45" font-weight="700">.</text>
</svg>
